<?xml version="1.0" encoding="UTF-8"?>
<svg id="Layer_2" data-name="Layer 2" xmlns="http://www.w3.org/2000/svg" viewBox="0 0 1116.28 426.38">
  <defs>
    <style>
      .cls-1 {
        fill: #e5682e;
      }

      .cls-2 {
        fill: #fff;
      }
    </style>
  </defs>
  <g id="Layer_1-2" data-name="Layer 1">
    <g>
      <path class="cls-2" d="M0,4.19h46.15v293.65H0V4.19Z"/>
      <path class="cls-2" d="M80.54,4.19h57.05l46.57,175.77V4.19h41.11v293.65h-46.56l-57.05-214.37v214.37h-41.11V4.19Z"/>
      <path class="cls-2" d="M301.49,253.36c-.22,1.69-.47,3.44-.77,5.27-.26.99-.09,1.95.52,2.79.6.83,1.42,1.32,2.38,1.42.92.1,1.77-.11,2.52-.62.74-.51,1.24-1.24,1.49-2.16l.02-.11c.11-.64.21-1.28.29-1.91-2.49-1.07-4.66-2.62-6.45-4.68Z"/>
      <path class="cls-2" d="M389.29,227.37c0,47.83-24.33,74.67-69.64,74.67-40.75,0-63.17-21.72-67.27-60.29-.3-2.87-.51-5.83-.61-8.89-.05-1.52-.08-3.07-.08-4.65v-16.78h43.63v20.13c0,10.24,2.19,17.29,6.17,21.8-.22,1.69-.47,3.44-.77,5.27-.26.99-.09,1.95.52,2.79.6.83,1.42,1.32,2.38,1.42.92.1,1.77-.11,2.52-.62.74-.51,1.24-1.24,1.49-2.16l.02-.11c.11-.64.21-1.28.29-1.91,3.25,1.42,7.04,2.05,11.29,2.05,14.68,0,24.33-7.56,24.33-29.37,0-24.33-10.08-39.44-40.27-65.86-38.6-33.97-51.6-58.31-51.6-91.87C251.7,26.84,275.61,0,320.5,0s67.11,26.84,67.11,73.83v12.16h-43.63v-15.1c0-20.98-8.38-28.95-23.07-28.95s-23.49,7.97-23.49,28.11c0,21.39,10.49,36.49,40.69,62.92,38.6,33.99,51.18,57.9,51.18,94.39Z"/>
      <path class="cls-2" d="M415.3,4.19h67.96c46.15,0,68.8,25.59,68.8,72.57v28.95c0,46.98-22.65,72.57-68.8,72.57h-21.81v119.56h-46.15V4.19ZM483.26,136.34c14.68,0,22.65-6.71,22.65-27.69v-34.82c0-20.97-7.97-27.69-22.65-27.69h-21.81v90.19h21.81Z"/>
      <path class="cls-2" d="M576.81,4.19h46.14v293.65h-46.14V4.19Z"/>
      <path class="cls-2" d="M794.53,262.19v-34.65c-2.68,4.74-5.79,9.71-9.28,14.85-10.45,15.41-22.47,29.52-35.89,42.18.4,3.34.94,5.82,1.57,8.09.49,1.76,1.04,3.39,1.64,5.18h46.98c-4.61-10.91-5.03-21.4-5.03-35.66Z"/>
      <path class="cls-2" d="M794.4,203.37c-.11-3.05-.3-5.99-.59-8.83-2.33-24.15-10.8-40.14-29.91-46.04v-.85c20.55-8.38,30.21-27.69,30.21-57.88v-18.05c0-45.3-20.55-67.54-68.38-67.54h-68.37v293.66h46.15v-125.86h15.94c20.98,0,28.95,8.82,28.95,36.08v53.69c0,1.07,0,2.12.01,3.12.07,9.15.4,15.2.97,19.7,13.42-12.66,25.44-26.78,35.89-42.18,3.5-5.15,6.6-10.11,9.28-14.85v-16.95c0-2.48-.04-4.88-.13-7.22ZM747.96,99c0,23.49-10.49,31.04-27.69,31.04h-16.78V46.15h20.98c16.35,0,23.49,9.23,23.49,30.2v22.66Z"/>
      <path class="cls-2" d="M826.41,4.19h125.85v41.95h-79.71v77.61h63.35v41.95h-63.35v90.19h79.71v41.95h-125.85V4.19Z"/>
      <path class="cls-2" d="M977.01,4.19h70.48c46.14,0,68.8,25.59,68.8,72.57v148.5c0,46.98-22.65,72.57-68.8,72.57h-70.48V4.19ZM1046.64,255.9c14.68,0,23.49-7.55,23.49-28.53V74.67c0-20.98-8.81-28.53-23.49-28.53h-23.49v209.75h23.49Z"/>
    </g>
    <g>
      <path class="cls-1" d="M824.05,279.31c.49.63,1.06,1.13,1.69,1.5.58.34,1.23.62,1.92.83.68.2,1.16.32,1.49.37.15.02.26.04.29.04.23.11.49.16.74.16.03,0,.07,0,.1,0,1.94-.11,3.16-1.3,3.34-3.28.03-.42,0-.82-.1-1.2.52-.2.99-.53,1.39-.99.66-.74.96-1.6.9-2.55-.06-.95-.46-1.77-1.2-2.43-.73-.65-1.62-.97-2.55-.91-3.95.23-6.57,1.2-7.98,2.93-.82.92-1.15,2.03-.95,3.2.06.85.37,1.63.9,2.31Z"/>
      <path class="cls-1" d="M297.81,216.47c-.79-.37-1.62-.67-2.49-.9v7.52c6.22,3.41,8.28,13.62,6.17,30.27-.22,1.69-.47,3.44-.77,5.27-.26.99-.09,1.95.52,2.79.6.83,1.42,1.32,2.38,1.42.92.1,1.77-.11,2.52-.62.74-.51,1.24-1.24,1.49-2.16l.02-.11c.11-.64.21-1.28.29-1.91,3.45-22.82.04-36.81-10.13-41.58ZM957.1,297.72h0c-.94-1.98-2.65-2.61-4.72-1.73-.04.02-.08.03-.12.05-1.21.58-2.44,1.18-3.7,1.8-9.33,4.64-20.07,10.51-32.02,17.52-12.92,7.59-25.1,15.24-36.27,22.78-.02-2.23-.27-4.47-.74-6.67-1.97-9.67-2.9-17.24-2.78-22.51.68-.38,1.19-.99,1.51-1.8.21-.55.28-1.12.22-1.68,5.86-2.74,10.61-5.3,14.16-7.64,1.06-.71,2.02-1.38,2.87-2.04,7.01-5.57,9.96-10.04,8.98-13.7-.47-1.57-1.75-3.53-5.19-3.98-3.7-.49-8.09.8-13.43,3.95-5.21,3.07-9.4,7.36-12.44,12.71-.59.98-1.1,2-1.52,3.06-.54,1.31-.96,2.68-1.26,4.09-.59.77-.81,1.65-.67,2.56-5.88,3.4-15.56,10.15-28.76,20.08-11.65,8.66-19.99,14.57-24.81,17.59-8.26,5.31-10.74,5.68-11.4,5.6-.01-.04-.02-.09-.03-.15-.01-.08-.02-.61.53-2.78.43-1.68,1.17-3.82,2.19-6.35,1.04-2.55,2.84-6.34,5.36-11.28,2.54-4.97,5.72-10.68,9.42-16.94.11-.16.2-.33.28-.49.43-.36.75-.81.96-1.36.34-.88.33-1.78-.07-2.77-1.01-2.02-2.69-2.67-4.6-1.8-22.54,9.87-38.55,17-47.66,21.26,1.61-3.51,2.46-6.82,2.55-9.9.12-4.04-.81-7.05-2.7-8.84-2.57-2.98-6.31-4.33-11.12-4.05-4.64.27-9.51,2.04-14.5,5.29-3.3,2.19-6.96,5.22-10.87,9-3.9,3.77-7.07,7.03-9.41,9.69-2.36,2.66-5.47,6.36-9.52,11.3-1.29,1.56-2.42,2.93-3.41,4.13,1.89-6.87,5.06-15.55,9.47-25.85.31-.23.59-.5.79-.81,9.85-6.72,19.34-14.23,28.26-22.39,1.45-1.34,2.9-2.69,4.33-4.06,10.45-10.01,19.34-19.84,26.44-29.22,4.72-6.23,9.01-12.38,12.82-18.37,1.93-3.03,3.74-6.02,5.41-8.95,5.02-8.78,8.65-16.49,10.8-22.93,2.22-6.62,2.96-11.54,2.29-15.04-.88-4.23-3.44-5.53-5.4-5.85-1.41-.29-3.06-.12-4.91.54-1.77.63-4.22,2.15-7.49,4.63-.47.36-.94.73-1.42,1.13.28,2.83.48,5.78.59,8.83,2.5-2.42,4.64-4.29,6.4-5.58,2.9-2.14,4.4-2.64,5.15-2.69.03.1.07.23.11.4.69,3.24-.79,9.23-4.43,17.83-1.89,4.47-4.26,9.23-7.09,14.21-2.68,4.74-5.79,9.71-9.28,14.85-10.45,15.41-22.47,29.52-35.89,42.18-6.8,6.43-13.96,12.48-21.48,18.13,6.12-12.94,13-25.61,20.51-37.83-.01-1-.01-2.04-.01-3.12v-9.7c-12.2,18.51-22.89,38.18-31.78,58.52-13.09,5.95-32.39,17.31-57.37,33.77-8.49,5.57-14.48,9.28-17.9,11.08,1.51-3.55,4.66-9.9,9.4-18.96,2.69-5.06,3.15-8.53,1.42-10.54l.94-.12-1.41-.43c.59-.71.83-1.68.66-2.88-1.38-7.8-5.05-12.66-10.9-14.43-3.58-1.09-7.61-.65-12,1.28-3,1.32-5.99,3.33-8.93,5.98-.29.07-.61.16-.93.31-17.8,9.18-36.16,20.33-54.58,33.14-6.06,4.21-8.99,6.04-10.4,6.8-.02-3.33,1.34-9.76,4.05-19.16.99-3.55,1.74-6.32,2.23-8.23.5-1.92.91-3.95,1.23-6.03.34-2.22.35-3.92.02-5.21-.35-1.38-1.08-2.51-2.16-3.34-2.19-1.85-5.4-1.73-9.54.36-5.11,2.75-11.27,6.76-18.28,11.97-7.04,5.2-12.86,9.72-17.31,13.42-4.39,3.65-10.37,8.73-18.27,15.51l-3.6,3.03c-.78.67-1.51,1.28-2.17,1.81,1.65-3.47,4.35-8.11,8.08-13.84,5.16-7.92,9.94-14.19,14.18-18.65.78-.8,1.16-1.65,1.14-2.52-.01-.86-.42-1.66-1.22-2.41-1.49-1.39-3.17-1.43-4.66-.12-.05.02-.11.04-.18.08-17.8,9.18-36.16,20.33-54.58,33.14-6.06,4.22-8.98,6.04-10.4,6.8-.02-3.32,1.34-9.76,4.05-19.15.99-3.56,1.74-6.33,2.23-8.23.5-1.94.91-3.96,1.23-6.04.35-2.22.35-3.92.03-5.21-.35-1.37-1.09-2.51-2.16-3.34-2.2-1.84-5.41-1.72-9.54.37-5.13,2.74-11.28,6.75-18.3,11.95-7.03,5.2-12.85,9.72-17.3,13.42-4.41,3.66-10.39,8.74-18.28,15.52l-3.6,3.02c-.78.67-1.5,1.28-2.17,1.82,1.65-3.49,4.35-8.12,8.08-13.85,5.16-7.92,9.94-14.19,14.18-18.65.78-.8,1.16-1.65,1.15-2.52-.02-.85-.43-1.66-1.23-2.4-1.54-1.45-3.28-1.44-4.8,0-13.09,5.74-32.93,17.34-58.95,34.49-8.49,5.57-14.5,9.27-17.9,11.06,1.5-3.55,4.65-9.9,9.4-18.95,2.69-5.07,3.15-8.55,1.41-10.55l.96-.11-1.41-.45c.59-.71.81-1.68.66-2.88-1.39-7.8-5.05-12.65-10.9-14.43-3.58-1.07-7.62-.64-12,1.29-2.46,1.09-4.95,2.65-7.38,4.65-3.41.89-7.92,3.79-13.76,8.87-5.81,5.07-14.77,13.55-26.61,25.2-13.24,13.24-23.25,22.86-29.75,28.6-12,10.7-22.45,17.87-31.05,21.36-8.28,3.34-14.54,3.06-18.58-.83-4.17-4.12-6.18-11.77-5.98-22.75.21-11.18,2.6-24.48,7.11-39.53,4.99-16.3,11.89-32.62,20.5-48.5,1.39-2.56,2.81-5.08,4.27-7.57,5.72-9.84,11.93-19.08,18.56-27.59,2.06-2.66,4.17-5.24,6.31-7.76,6.66-7.73,13.62-14.68,20.8-20.75-.3-2.87-.51-5.83-.61-8.89l-1.01.81c-8.57,7-16.8,15.19-24.45,24.33-.35.41-.69.83-1.04,1.24-8.52,10.12-16.58,21.59-23.97,34.11-.89,1.5-1.76,3.01-2.61,4.51-6.56,11.54-12.1,23.11-16.5,34.45-4.97,12.81-8.84,25.24-11.49,36.94-2.65,11.75-3.59,22.32-2.78,31.41.83,9.25,3.51,16.12,7.97,20.43,3.6,3.52,8.08,5.3,13.31,5.3.47,0,.94-.01,1.42-.04,11.41-.67,26.36-9.19,44.45-25.29,6.65-6,16.79-15.71,30.15-28.86,5.16-5.14,9.11-9.06,11.85-11.74.97-.96,2.02-1.97,3.14-3.04-1.02,1.64-1.9,3.2-2.65,4.69-3.58,7.16-3.95,12.09-1.13,15.08,4.82,5.13,14.48,1.49,29.59-11.18l1.03-1.01c6.8-5.79,12.05-9.91,15.7-12.33-5.32,9.99-8.65,16.84-9.91,20.35-1.43,3.97-1.21,6.84.65,8.49,1.02.92,2.25,1.35,3.63,1.26,1.93-.11,4.58-1.17,8.1-3.24,3.34-1.95,8.65-5.3,16.25-10.22,17.85-11.86,32.79-21.02,44.49-27.32-2.32,3.26-4.68,6.83-7.06,10.68-3.2,5.28-5.49,9.6-6.79,12.85-1.81,4.5-1.9,5.84-1.76,6.57.2.96.66,1.84,1.44,2.67,1.03.92,2.26,1.35,3.64,1.26,2.33-.13,5.81-2.19,10.63-6.3l3.42-3c7.57-6.47,13.66-11.6,18.11-15.23,4.43-3.63,10.14-8.03,16.97-13.09,6.79-5.02,12.73-8.93,17.63-11.6.74-.4,1.27-.62,1.64-.74-.01,1.4-.52,5.11-3.27,14.98-3.15,10.84-4.57,18.06-4.33,22.01.04,3.05,1.12,5.15,3.22,6.25,1.77.83,3.91.63,6.33-.58,2.17-1.09,5.99-3.57,11.66-7.61,13.15-9.11,26.33-17.41,39.24-24.7-2.07,2.96-4.19,6.2-6.33,9.67-3.2,5.28-5.49,9.6-6.79,12.83-1.81,4.51-1.91,5.85-1.76,6.58.2.96.66,1.82,1.44,2.67,1.03.91,2.25,1.36,3.64,1.26,2.33-.14,5.81-2.19,10.63-6.3l3.42-3c7.57-6.47,13.67-11.6,18.1-15.23,4.44-3.63,10.15-8.03,16.98-13.09,6.79-5.02,12.71-8.93,17.63-11.6.73-.4,1.26-.62,1.64-.74-.01,1.39-.52,5.11-3.27,14.97-3.15,10.85-4.57,18.07-4.34,22.02.05,3.04,1.13,5.14,3.24,6.24,1.77.84,3.9.64,6.33-.58,2.17-1.07,5.98-3.57,11.66-7.6,12.88-8.93,25.78-17.07,38.44-24.26-3.6,4.72-6.4,9.02-8.31,12.85-3.59,7.14-3.96,12.07-1.14,15.07,4.83,5.14,14.48,1.49,29.59-11.18l1.03-1c6.8-5.79,12.06-9.92,15.7-12.33-5.32,9.99-8.65,16.84-9.91,20.34-1.42,3.98-1.21,6.84.65,8.5,1.03.91,2.27,1.34,3.63,1.26,1.94-.12,4.58-1.17,8.1-3.24,3.32-1.95,8.78-5.39,16.25-10.23,20.53-13.63,37.18-23.69,49.52-29.95-3.16,7.84-5.52,14.75-7.04,20.51-.92,3.08-1.49,5.6-1.66,7.49-.18,2.05-.15,3.31.11,4.07.27.8.79,1.5,1.49,1.99,1.14.93,3.46,2.05,6.21-1.05,1.95-2.22,5.07-5.85,9.53-11.15,3.95-4.81,7.09-8.57,9.33-11.16,2.2-2.55,5.19-5.65,8.89-9.2,3.66-3.51,7.08-6.31,10.17-8.32,2.63-1.74,5.18-2.95,7.59-3.63,2.36-.65,4.28-.85,5.71-.59,1.35.24,2.32.77,2.93,1.54.73,1.09,1.12,2.51,1.17,4.21.05,1.75-.56,4.07-1.85,6.89-1.29,2.84-3.21,5.9-5.72,9.09-7.97,4.06-15.3,8.25-21.77,12.45-4,2.54-7.44,4.9-10.24,6.99-2.78,2.1-4.85,3.76-6.18,4.96-1.36,1.22-2.4,2.37-3.09,3.42-1,1.47-1.17,2.05-1.22,2.44-.04.39-.04.85-.01,1.42.25,1.74,1.25,2.91,2.88,3.4l.12.03c.52.1,1.17.13,1.9.09,3.38-.21,8.35-2.31,15.22-6.47,8.9-5.49,16.98-12.19,23.97-19.87,1.1-1.13,2.11-2.26,3-3.38,8.15-4.16,24.27-11.51,47.93-21.88-2.76,4.89-5.1,9.24-6.98,12.98-2.96,5.86-4.79,10.3-5.61,13.58-.84,3.33-1.16,5.75-1.01,7.43.17,1.78.83,3.25,1.92,4.36l.1.09c1.36,1.09,3.07,1.59,5.08,1.45,3.49-.21,8.1-2.16,14.12-5.99,5.78-3.69,14.48-9.9,25.87-18.47,10.56-7.9,18.78-13.7,24.47-17.29.27,5.33,1.24,12.05,2.88,20,.6,3.31.66,6.75.22,10.23-10.21,7.2-17.86,13.26-22.78,18.01-14.31,13.85-19.57,22.4-16.56,26.85.74,1.29,2.3,2.79,5.55,2.58,1.44-.08,3.14-.52,5.2-1.36,2.19-.91,4.63-2.28,7.26-4.06,2.61-1.77,5.42-4.02,8.34-6.68s5.71-5.58,8.28-8.68c2.61-3.12,4.95-6.73,6.98-10.75,1.97-3.9,3.41-7.87,4.29-11.8,11.4-7.93,24.34-16.17,38.47-24.52,14.28-8.44,26.86-15.23,37.45-20.24,2.01-1.01,2.63-2.73,1.69-4.71ZM888.59,288.69c3.2-2,5.93-3.2,8.09-3.58-.91,1.17-2.56,2.84-5.53,5.21-2.42,1.9-5.99,4.04-10.66,6.37,2.15-3.3,4.86-5.99,8.1-8ZM302.64,359.72l-1.1.9c-2.75,2.31-5.39,4.33-7.84,6-2.39,1.64-4.36,2.84-5.87,3.57-1.49.73-2.82,1.29-3.95,1.67-1.42.48-1.94.52-2.11.5-.16,0-.26-.02-.33-.04-.05-.24-.09-1.01.48-2.96.61-2.07,2.48-5.53,5.56-10.27,3.12-4.79,7.47-10.24,12.94-16.21,5.43-5.92,10.46-9.06,14.93-9.32.97-.05,1.86-.01,2.64.13,3.13,1,5.09,3.91,5.99,8.89.04.48.15.9.34,1.28-4.16,1.7-11.3,6.93-21.68,15.85ZM624.14,340.74l-1.1.89c-2.77,2.32-5.41,4.34-7.84,6-2.4,1.64-4.38,2.84-5.89,3.58-1.49.72-2.81,1.28-3.95,1.66-1.45.5-1.99.52-2.11.51-.15-.01-.26-.02-.33-.04-.04-.25-.09-1.02.48-2.96.61-2.07,2.48-5.53,5.56-10.28,3.12-4.78,7.47-10.23,12.95-16.21,5.42-5.92,10.45-9.04,14.93-9.32.96-.05,1.85-.01,2.63.13,3.13,1.01,5.09,3.92,6,8.9.03.47.14.9.33,1.27-4.16,1.7-11.29,6.93-21.67,15.86ZM865.8,360.98c-2.31,3.47-4.32,6.13-5.97,7.89-1.68,1.78-3.36,3.44-4.96,4.92-3.56,3.12-6.91,5.52-9.95,7.13-1.99,1.06-3.41,1.69-4.42,2.05,1.41-2.82,5.21-7.85,14.48-16.75,3.42-3.38,8.37-7.47,14.75-12.18-1.09,2.32-2.4,4.65-3.93,6.94Z"/>
    </g>
  </g>
</svg>