<?xml version="1.0" encoding="UTF-8"?>
<svg id="Layer_2" data-name="Layer 2" xmlns="http://www.w3.org/2000/svg" viewBox="0 0 505.55 505.55">
  <defs>
    <style>
      .cls-1 {
        fill: none;
        stroke: #fff;
        stroke-miterlimit: 10;
        stroke-width: 4.93px;
      }

      .cls-2 {
        fill: #e66a2a;
      }
    </style>
  </defs>
  <g id="Layer_1-2" data-name="Layer 1">
    <g>
      <circle class="cls-1" cx="252.77" cy="252.77" r="250.31"/>
      <path class="cls-2" d="M252.77,24.04c-126.1,0-228.73,102.64-228.73,228.73,0,126.16,102.64,228.73,228.73,228.73,126.16,0,228.73-102.57,228.73-228.73,0-126.1-102.57-228.73-228.73-228.73ZM422.8,307.24c-.44,1.31-12.98,6.3-12.98,6.3l3.62,2.06c-1.31,1.31-15.16,4.87-15.16,4.87l4.12,2.62c-4.06,2.18-14.04,3.43-14.04,3.43l4.37,2.56c-3.99,2-14.29,2.31-14.29,2.31l3.18,2.75c-10.61,2.25-15.35,1.62-16.1,1.56.12.12.75.69,3.24,3.06-10.48,2.5-16.97,1.62-16.97,1.62l3.68,3.12c-4.43,2.18-18.53,1.62-18.53,1.62l2.43,2.81c-5.12,1.56-16.78.44-16.78.44l1.87,1.87c-4.8,2.31-16.72,1.12-16.72,1.12l1.93,2.43c-5.12,1.06-16.91.75-16.91.75l2.62,2.75c-5.12,1.44-12.1-.06-18.03-.44-4.55-.25-16.35,2.18-21.46,3.31,3.56.44,9.11,1,11.42.69,3.56-.44,7.67-1.56,10.86-1l-1.44,1.68s7.05-.62,10.23-.19l-1.06,1.43s7.11-1.12,10.11,0l-1,1.12s6.93-1.12,10.11-.44l-1.31,1.75s8.49-.87,11.23.19l-2.06,1.93s3.87-.75,10.36.25l-1.87,1.93s2.75-.69,9.8.25l-1.75,1.68s6.24-.25,8.74.75l-2.5,1.68s6.11.31,8.61,1.37l-2.31,1.75s8.55,1.43,9.42,2.18l-2.06,1.31s7.8,2.37,8.17,3.12l-1.68,1s13.48,5.62,16.91,7.42c.19.12.12.5-.19.5-3.81-.12-18.28-2.12-18.28-2.12l.94,1.68c-.69.44-8.61-1.43-8.61-1.43l1.12,2.18c-1.06.25-8.3-2.43-9.17-2.75.06.19.25.75,1.06,2.56-2.56-.31-7.49-2.75-8.11-3,.06.19.31.75,1.25,2.56-2.62-.37-7.92-3.68-7.92-3.68l.69,2.37c-6.55-2.75-8.55-4.74-8.55-4.74l.56,2.56c-5.68-2.18-8.67-4.62-8.98-4.8.06.25.25.87.75,2.56-2.93-.44-9.8-5.43-9.8-5.43l.25,2.12c-3.06-1-8.55-5.43-8.55-5.43l.31,1.5c-3.18-.5-8.73-5.05-8.73-5.05l.12,1.75c-2.87-1.19-8.67-5.3-8.67-5.3l.37,2.18c-3.06-1.06-6.05-4.12-8.86-6.3-2.31-1.75-9.55-4.74-12.29-5.8h-.12s-.06-.12-.06-.12h-.06c-.06.06-.06.12-.06.12h-1.12s0,0-.06,0c-2.68,1.06-9.92,4.06-12.23,5.8-2.81,2.18-5.86,5.24-8.86,6.3l.37-2.18s-5.8,4.12-8.74,5.3l.19-1.75s-5.62,4.55-8.8,5.05l.37-1.5s-5.49,4.43-8.55,5.43l.25-2.12s-6.86,4.99-9.86,5.43c.56-1.68.75-2.31.81-2.56-.31.19-3.31,2.62-9.05,4.8l.62-2.56s-2,2-8.55,4.74l.69-2.37s-5.3,3.31-7.99,3.68l1.31-2.62s-5.37,2.75-8.17,3.06c.81-1.81,1.06-2.37,1.12-2.56-.87.31-8.11,2.99-9.17,2.75l1.12-2.18s-7.92,1.87-8.61,1.43l.94-1.68s-14.48,2-18.34,2.12c-.25,0-.37-.37-.12-.5,3.43-1.81,16.85-7.42,16.85-7.42l-1.62-1c.37-.75,8.17-3.12,8.17-3.12l-2.06-1.31c.87-.75,9.42-2.18,9.42-2.18l-2.37-1.75c2.56-1.06,8.67-1.37,8.67-1.37l-2.5-1.68c2.5-1,8.73-.75,8.73-.75l-1.75-1.68c7.05-.94,9.73-.25,9.73-.25l-1.81-1.93c6.49-1,10.29-.25,10.29-.25l-2.06-1.93c2.81-1.06,11.23-.19,11.23-.19l-1.25-1.75c3.12-.69,10.11.44,10.11.44l-1.06-1.12c3.06-1.12,10.17,0,10.17,0l-1.06-1.43c3.12-.44,10.23.19,10.23.19l-1.43-1.68c3.18-.56,7.3.56,10.79,1,2.31.31,7.92-.25,11.48-.69-5.12-1.12-16.91-3.56-21.46-3.31-5.93.37-12.92,1.87-18.03.44l2.62-2.75s-11.79.31-16.91-.75l1.93-2.43s-11.98,1.19-16.78-1.12l1.93-1.87s-11.67,1.12-16.78-.44l2.37-2.81s-14.04.56-18.53-1.62l3.74-3.12s-6.49.87-17.03-1.62c2.5-2.37,3.12-2.93,3.24-3.06-.69.06-5.43.69-16.04-1.56l3.18-2.75s-10.3-.31-14.29-2.31l4.37-2.56s-9.98-1.25-14.04-3.43l4.12-2.62s-13.85-3.56-15.16-4.87l3.62-2.06s-12.54-4.99-13.04-6.3l2.87-1.5s-21.4-11.11-26.64-14.66c-.37-.25-.19-.87.25-.81,6.36.69,29.95,5.62,29.95,5.62l-1.25-2.93c1.19-.75,14.04,3.37,14.04,3.37l-1.5-3.87c1.87-.25,14.79,5.86,14.79,5.86l-1.5-4.62c4.49.87,13.04,6.3,13.04,6.3l-1.75-4.74c4.06.87,11.54,6.55,12.48,7.24,0-.25-.12-1.06-.69-4.06,10.42,5.43,13.35,9.11,13.35,9.11l-.56-4.55c9.73,4.8,14.16,9.55,14.16,9.55l-.87-4.74c4.8,1.19,15.35,10.54,15.35,10.54l-.06-3.68c4.87,2.06,13.23,10.29,13.23,10.29l-.31-2.62c5.18,1.31,13.66,9.8,13.66,9.8v-3.06c4.68,2.37,13.54,10.11,13.54,10.11l-.25-3.74c4.8,2.18,9.3,7.74,13.6,11.79,3.24,3.06,13.29,8.61,18.16,11.17-4.31-4.68-14.16-15.16-18.9-18.03-6.11-3.68-14.1-6.99-18.22-11.92l4.62-.94s-11.98-7.8-16.22-12.42l3.68-1.06s-12.73-7.05-15.79-12.67l3.18-.56s-12.42-6.86-16.35-11.92l4.43-1.19s-14.35-9.17-17.16-14.41l5.93-.5s-7.05-3.62-15.72-13.35l5.55-.87s-5.24-2.18-14.91-12.54l5.12-.56s-9.98-7.42-12.48-12.1l6.18.37s-8.98-8.11-11.42-13.04l5.99.19s-11.23-13.04-11.54-15.29l5.12.37s-8.86-13.54-8.36-15.22l3.93.5s-13.17-25.83-15.85-33.01c-.19-.5.5-1,.87-.62,5.8,4.99,25.64,26.14,25.64,26.14l.94-3.81c1.75.06,11.42,13.04,11.42,13.04l1.37-4.93c2,1.06,10.42,16.1,10.42,16.1l1.87-5.74c3.81,3.99,8.36,15.29,8.36,15.29l1.68-5.99c3.62,3.99,7.18,15.91,7.18,15.91l2.25-4.62c6.36,12.67,6.68,18.34,6.68,18.34l2.68-4.93c6.18,11.42,7.18,19.28,7.18,19.28l2.5-5.37c3.93,4.49,7.61,21.09,7.61,21.09l2.62-3.74c3.37,5.43,5.62,19.47,5.62,19.47l1.62-2.87c4.18,4.87,6.49,19.22,6.49,19.22l2.25-3.12c2.81,5.62,6.05,19.53,6.05,19.53l2.43-3.99c3.24,5.49,3.62,14.16,4.99,21.21,1.06,5.55,7.67,19.28,10.36,24.65-.75-6.68-2.87-23.02-5.18-28.76-2.93-7.18-7.55-15.29-8.11-22.34,3.24,1.56,4.06,1.93,4.24,2-.37-1.25-5.3-14.85-6.11-21.4l3.62,1.37s-6.36-14.48-5.68-21.46l2.93,1.5s-6.18-14.1-6.55-21.15l4.31,1.75s-6.55-17.35-5.86-23.9c3.87,2.43,4.87,3.06,5.12,3.18-.37-.94-3.81-8.55-5.18-21.9,3.81,2.06,4.74,2.56,4.99,2.68-.31-.62-3.06-6.24-4.99-20.78,3.43,2.06,4.24,2.56,4.49,2.68-.19-.69-3.93-13.16-3.24-18.84l4.87,4.31s-2.75-13.04-1.93-19.09l4.8,3.99s-1.68-18.9-.69-21.15l3.99,3.62s.5-17.91,1.87-19.09l2.93,2.93s3.99-31.76,5.93-39.93c.12-.62.94-.62,1.06,0,1.87,8.24,6.05,39.93,6.05,39.93l2.93-2.93c1.37,1.19,1.87,19.09,1.87,19.09l3.93-3.62c1.06,2.25-.69,21.15-.69,21.15l4.87-3.99c.81,6.05-1.93,19.09-1.93,19.09l4.8-4.31c.69,5.68-2.99,18.16-3.18,18.84.25-.12,1.06-.62,4.49-2.68-1.93,14.54-4.68,20.15-4.99,20.78.25-.12,1.19-.62,4.99-2.68-1.43,13.35-4.8,20.96-5.18,21.9.25-.12,1.25-.75,5.12-3.18.69,6.55-5.86,23.9-5.86,23.9l4.31-1.75c-.37,7.05-6.55,21.15-6.55,21.15l2.93-1.5c.69,6.99-5.68,21.46-5.68,21.46l3.62-1.37c-.81,6.55-5.74,20.15-6.11,21.4.19-.06,1-.44,4.24-2-.56,7.05-5.18,15.16-8.11,22.34-2.37,5.93-4.87,23.34-5.68,29.51,2.37-4.8,9.61-19.53,10.73-25.39,1.37-7.05,1.75-15.72,4.99-21.21l2.43,3.99s3.18-13.91,6.05-19.53l2.25,3.12s2.31-14.35,6.49-19.22l1.62,2.87s2.25-14.04,5.62-19.47l2.62,3.74s3.62-16.6,7.61-21.09l2.5,5.37s1-7.86,7.18-19.28l2.68,4.93s.31-5.68,6.68-18.34l2.25,4.62s3.56-11.92,7.18-15.91l1.68,5.99s4.49-11.29,8.36-15.29l1.87,5.74s8.42-15.04,10.42-16.1l1.37,4.93s9.67-12.98,11.42-13.04l.87,3.81s19.9-21.15,25.64-26.14c.44-.37,1.12.12.94.62-2.68,7.18-15.85,33.01-15.85,33.01l3.87-.5c.5,1.68-8.3,15.22-8.3,15.22l5.12-.37c-.37,2.25-11.54,15.29-11.54,15.29l5.99-.19c-2.43,4.93-11.48,13.04-11.48,13.04l6.18-.37c-2.43,4.68-12.48,12.1-12.48,12.1l5.18.56c-9.67,10.36-14.97,12.54-14.97,12.54l5.62.87c-8.67,9.73-15.72,13.35-15.72,13.35l5.93.5c-2.81,5.24-17.16,14.41-17.16,14.41l4.37,1.19c-3.93,5.05-16.28,11.92-16.28,11.92l3.18.56c-3.06,5.62-15.79,12.67-15.79,12.67l3.68,1.06c-4.31,4.62-16.22,12.42-16.22,12.42l4.62.94c-4.12,4.93-12.1,8.24-18.22,11.92-4.74,2.87-14.6,13.35-18.91,18.03,4.87-2.56,14.91-8.11,18.16-11.17,4.31-4.06,8.74-9.61,13.6-11.79l-.31,3.74s8.92-7.74,13.6-10.11v3.06s8.49-8.49,13.66-9.8l-.31,2.62s8.3-8.24,13.23-10.29l-.06,3.68s10.54-9.36,15.35-10.54l-.94,4.74s4.49-4.74,14.23-9.55l-.62,4.55s2.99-3.68,13.41-9.11c-.56,3-.69,3.81-.69,4.06.94-.69,8.36-6.36,12.48-7.24l-1.75,4.74s8.49-5.43,12.98-6.3l-1.43,4.62s12.92-6.11,14.79-5.86l-1.5,3.87s12.79-4.12,14.04-3.37l-1.25,2.93s23.58-4.93,29.89-5.62c.5-.06.69.56.31.81-5.3,3.56-26.7,14.66-26.7,14.66l2.87,1.5Z"/>
    </g>
  </g>
</svg>