<?xml version="1.0" encoding="UTF-8"?>
<svg id="Layer_2" data-name="Layer 2" xmlns="http://www.w3.org/2000/svg" viewBox="0 0 502.6 502.6">
  <defs>
    <style>
      .cls-1 {
        fill: #fff;
      }
    </style>
  </defs>
  <g id="Layer_1-2" data-name="Layer 1">
    <g>
      <path class="cls-1" d="M249.42,19.76C121.76,20.8,18.73,125.48,19.76,253.14c1.03,127.66,105.72,230.69,233.38,229.66,127.66-1.03,230.69-105.72,229.66-233.38-1.03-127.66-105.72-230.69-233.38-229.66ZM412.22,297.7l2.78,1.42c-.44,1.3-12.61,6.17-12.61,6.17l3.54,2.01c-1.24,1.33-14.71,4.81-14.71,4.81l4.02,2.54c-3.93,2.13-13.64,3.4-13.64,3.4l4.25,2.45c-3.84,1.98-13.88,2.36-13.88,2.36l3.1,2.63c-11.16,2.39-15.65,1.54-15.65,1.54l3.25,2.98c-10.22,2.51-16.51,1.71-16.51,1.71l3.6,2.98c-4.28,2.13-17.98,1.71-17.98,1.71l2.33,2.72c-4.93,1.51-16.27.5-16.27.5l1.83,1.77c-4.67,2.27-16.3,1.24-16.3,1.24l1.92,2.3c-4.96,1.09-16.42.86-16.42.86l2.57,2.63c-4.99,1.39-11.78,0-17.54-.32-4.43-.27-15.86,2.19-20.85,3.34,3.48.38,8.89.89,11.16.59,3.43-.47,7.41-1.59,10.48-1l-1.36,1.62s6.85-.68,9.92-.27l-1,1.42s6.91-1.15,9.83-.06l-.97,1.12s6.73-1.12,9.8-.47l-1.24,1.68s8.21-.89,10.93.15l-2.01,1.86s3.75-.74,10.04.24l-1.77,1.86s2.63-.71,9.51.15l-1.71,1.68s6.05-.27,8.48.71l-2.39,1.59s5.94.3,8.42,1.33l-2.27,1.65s8.33,1.39,9.15,2.1l-2.01,1.33s7.62,2.21,7.97,2.95l-1.59.94s13.11,5.4,16.42,7.15c.24.12.15.47-.12.47-3.75-.09-17.81-1.92-17.81-1.92l.92,1.59c-.62.47-7.97-1.24-8.36-1.3.03.09.24.5,1.06,2.1-1.03.21-8.33-2.42-8.95-2.63.03.12.27.62,1.12,2.51-2.6-.3-7.65-2.81-7.94-2.95.06.12.29.62,1.27,2.54-2.6-.35-7.74-3.54-7.74-3.54l.65,2.27c-6.38-2.63-8.33-4.55-8.33-4.55l.59,2.51c-5.94-2.24-8.83-4.75-8.83-4.75l.83,2.63c-2.89-.44-9.57-5.26-9.57-5.26l.24,2.07c-2.98-.94-8.33-5.23-8.33-5.23l.35,1.45c-3.1-.47-8.56-4.9-8.56-4.9l.18,1.74c-2.86-1.15-8.51-5.11-8.51-5.11l.38,2.1c-2.95-1.03-5.88-3.96-8.65-6.05-2.21-1.68-9.3-4.55-11.93-5.61l-.18.06-.03-.12s-.06-.03-.09-.06c-.03.06-.03.18-.03.18h-1.12v-.03h-.03c-2.6,1.06-9.66,4.02-11.87,5.73-2.75,2.13-5.64,5.08-8.59,6.14l.38-2.13s-5.61,4.05-8.45,5.23l.15-1.74s-5.4,4.46-8.5,4.99l.32-1.45s-5.29,4.34-8.27,5.32l.24-2.07s-6.64,4.87-9.51,5.35l.77-2.63s-2.86,2.54-8.77,4.84l.56-2.51s-1.92,1.95-8.27,4.64l.62-2.27s-5.11,3.25-7.68,3.63c.94-1.95,1.15-2.45,1.21-2.57-.3.15-5.32,2.69-7.88,3.04.83-1.92,1.06-2.42,1.09-2.54-.62.21-7.91,2.92-8.95,2.75.83-1.59,1.03-2.01,1.06-2.1-.38.06-7.71,1.83-8.36,1.39l.89-1.62s-14.03,1.98-17.75,2.13c-.27,0-.38-.35-.15-.5,3.31-1.77,16.36-7.29,16.36-7.29l-1.59-.94c.33-.74,7.91-3.04,7.91-3.04l-2.01-1.3c.83-.71,9.1-2.19,9.1-2.19l-2.24-1.62c2.45-1.09,8.39-1.42,8.39-1.42l-2.42-1.59c2.42-.97,8.48-.8,8.48-.8l-1.71-1.65c6.85-.94,9.48-.24,9.48-.24l-1.77-1.89c6.26-1,10.01-.3,10.01-.3l-2.01-1.86c2.72-1.06,10.93-.27,10.93-.27l-1.27-1.68c3.07-.68,9.83.38,9.83.38l-1.03-1.09c2.95-1.15,9.86-.06,9.86-.06l-1-1.42c3.04-.44,9.92.18,9.92.18l-1.39-1.62c3.07-.62,7.06.47,10.51.89,2.24.27,7.65-.3,11.13-.71-4.99-1.09-16.45-3.43-20.91-3.1-5.73.38-12.52,1.83-17.51.5l2.54-2.66s-11.46.35-16.45-.68l1.89-2.33s-11.61,1.18-16.3-1.06l1.83-1.77s-11.34,1.12-16.3-.35l2.33-2.75s-13.7.59-18.01-1.51l3.57-3.01s-6.29.86-16.54-1.51l3.22-3.04s-4.46.92-15.65-1.36l3.07-2.69s-10.04-.27-13.91-2.19l4.22-2.51s-9.74-1.15-13.67-3.25l3.99-2.6s-13.5-3.34-14.77-4.64l3.51-2.04s-12.2-4.75-12.67-6.05l2.78-1.45s-20.85-10.66-26.02-14.09c-.35-.24-.15-.86.3-.8,6.05.62,28.41,5.14,29.09,5.26-.06-.15-.3-.68-1.21-2.83,1.18-.74,13.64,3.25,13.64,3.25l-1.45-3.78c1.74-.24,13.64,5.29,14.38,5.61-.03-.15-.27-.83-1.45-4.46,4.37.83,12.67,6.02,12.67,6.02l-1.71-4.58c4.22.92,12.2,7,12.2,7l-.71-3.99c10.13,5.26,13.02,8.77,13.02,8.77l-.59-4.37c9.48,4.58,13.85,9.21,13.85,9.21l-.92-4.61c4.7,1.09,14.97,10.13,14.97,10.13l-.09-3.57c4.78,1.95,12.91,9.95,12.91,9.95l-.33-2.54c5.05,1.24,13.38,9.45,13.38,9.45l-.03-3.01c4.52,2.3,13.23,9.8,13.23,9.8l-.32-3.66c4.75,2.1,9.1,7.47,13.32,11.4,3.16,2.92,12.96,8.27,17.69,10.78-4.19-4.55-13.85-14.71-18.46-17.42-5.96-3.57-13.76-6.76-17.75-11.55l4.46-.92s-11.66-7.5-15.83-11.96l3.57-1.03s-12.4-6.82-15.41-12.26l3.1-.53s-12.08-6.67-15.92-11.55l4.28-1.15s-14-8.83-16.77-13.91l5.76-.53s-6.88-3.48-15.33-12.88l5.4-.86s-5.11-2.13-14.56-12.14l4.99-.56s-9.77-7.15-12.2-11.72l5.99.38s-8.83-7.86-11.19-12.67l5.82.15s-10.96-12.61-11.28-14.79l4.99.38s-8.68-13.14-8.21-14.79l3.81.47s-12.93-25.04-15.59-32.01c-.18-.47.47-.94.89-.59,5.64,4.84,25.07,25.28,25.07,25.28l.83-3.72c1.68.09,11.19,12.64,11.19,12.64l1.3-4.81c1.95,1.03,10.19,15.59,10.19,15.59l1.8-5.55c3.75,3.84,8.21,14.77,8.21,14.77l1.62-5.79c3.51,3.81,7,15.41,7,15.41l2.21-4.52c6.26,12.26,6.56,17.78,6.56,17.78l2.6-4.81c6.05,11.1,7.03,18.75,7.03,18.75l2.45-5.26c3.87,4.31,7.5,20.46,7.5,20.46l2.54-3.66c3.31,5.26,5.55,18.87,5.55,18.87l1.54-2.78c4.1,4.7,6.41,18.63,6.41,18.63l2.16-3.01c2.81,5.4,5.99,18.9,5.99,18.9l2.36-3.9c3.16,5.37,3.6,13.76,4.93,20.58,1.09,5.43,7.59,18.72,10.22,23.95-.8-6.5-2.92-22.41-5.2-27.94-2.89-7-7.44-14.82-7.97-21.68,3.37,1.59,4.02,1.89,4.16,1.95-.29-.86-5.26-14.32-6.11-20.82,3.07,1.15,3.46,1.3,3.48,1.3-.33-.8-6.17-14.17-5.58-20.82,2.13,1.12,2.66,1.39,2.81,1.45-.35-.83-6.05-13.82-6.41-20.46,3.34,1.3,3.99,1.57,4.13,1.59-.35-.97-6.38-16.98-5.76-23.15l5.02,3.16s-3.63-7.5-5.17-21.35l4.9,2.63s-2.95-5.17-4.99-20.17l4.4,2.63s-3.93-12.67-3.28-18.34l4.7,4.13s-2.75-12.67-1.92-18.52l4.7,3.81s-1.77-18.37-.8-20.55l3.87,3.48s.41-17.36,1.74-18.55l2.86,2.83s3.69-30.86,5.52-38.83c.12-.56.92-.56,1.06,0,1.86,7.97,6.08,38.74,6.08,38.74l2.81-2.83c1.36,1.15,1.95,18.52,1.95,18.52l3.81-3.51c1.03,2.16-.56,20.55-.56,20.55l4.67-3.87c.86,5.85-1.74,18.55-1.74,18.55l4.67-4.19c.71,5.67-3.07,18.4-3.07,18.4l4.37-2.72c-1.86,15.06-4.78,20.26-4.78,20.26l4.87-2.72c-1.36,13.88-4.93,21.41-4.93,21.41l4.99-3.19c.68,6.17-5.2,22.24-5.52,23.21.15-.03.8-.3,4.13-1.65-.3,6.64-5.88,19.73-6.2,20.55.15-.06.68-.35,2.81-1.51.65,6.64-5.05,20.11-5.37,20.91.03,0,.41-.15,3.46-1.33-.77,6.47-5.58,20.02-5.88,20.88.15-.06.8-.38,4.13-2.01-.44,6.85-4.93,14.74-7.71,21.76-2.3,5.76-4.64,22.65-5.4,28.67,2.3-4.67,9.24-19.05,10.31-24.75,1.27-6.82,1.59-15.24,4.72-20.61l2.39,3.84s3.04-13.5,5.79-18.96l2.21,2.98s2.13-13.97,6.2-18.69l1.57,2.75s2.1-13.61,5.34-18.9l2.57,3.6s3.48-16.18,7.29-20.52l2.48,5.23s.92-7.65,6.85-18.81l2.66,4.78s.24-5.55,6.35-17.84l2.24,4.46s3.37-11.64,6.85-15.47l1.68,5.76s4.34-10.96,8.03-14.85l1.89,5.52s8.06-14.62,10.01-15.68l1.36,4.78s9.36-12.64,11.04-12.76l.89,3.72s19.19-20.64,24.78-25.54c.41-.35,1.06.09.89.59-2.57,7-15.24,32.16-15.24,32.16l3.81-.5c.47,1.65-8.03,14.85-8.03,14.85l4.96-.41c-.3,2.19-11.13,14.91-11.13,14.91l5.85-.21c-2.33,4.84-11.07,12.79-11.07,12.79l5.99-.47c-2.36,4.64-12.05,11.9-12.05,11.9l4.99.5c-9.36,10.07-14.44,12.28-14.44,12.28l5.4.77c-8.33,9.51-15.18,13.05-15.18,13.05l5.76.5c-2.72,5.11-16.6,14.06-16.6,14.06l4.28,1.12c-3.81,4.93-15.8,11.69-15.8,11.69l3.1.5c-2.95,5.49-15.27,12.43-15.27,12.43l3.57.97c-4.13,4.52-15.68,12.14-15.68,12.14l4.46.89c-3.93,4.81-11.69,8.09-17.63,11.72-4.58,2.78-14.12,13.02-18.28,17.6,4.72-2.54,14.44-7.97,17.57-10.96,4.16-3.96,8.48-9.39,13.2-11.55l-.27,3.69s8.59-7.59,13.11-9.95v3.01s8.24-8.3,13.26-9.57l-.27,2.51s8.03-8.06,12.76-10.1v3.6s10.16-9.18,14.85-10.31l-.89,4.61s4.34-4.67,13.73-9.36l-.53,4.4s2.86-3.57,12.93-8.92l-.68,4.02s7.94-6.2,12.14-7.18l-1.65,4.64s8.24-5.32,12.61-6.2c-1.18,3.66-1.39,4.37-1.42,4.52.74-.32,12.58-5.99,14.32-5.79l-1.42,3.81s12.43-4.13,13.64-3.43c-.95,2.16-1.15,2.72-1.21,2.86.68-.12,22.97-4.87,29.03-5.58.44-.03.68.56.3.83-5.11,3.46-25.84,14.35-25.84,14.35Z"/>
      <path class="cls-1" d="M249.28,0C110.72,1.13-1.11,114.76,0,253.32c1.12,138.56,114.76,250.36,253.31,249.27,138.56-1.12,250.36-114.76,249.27-253.31C501.47,110.72,387.83-1.11,249.28,0ZM253.26,497.21C117.69,498.31,6.48,388.87,5.38,253.26,4.29,117.69,113.7,6.48,249.31,5.38c135.6-1.09,246.82,108.32,247.91,243.92,1.09,135.6-108.35,246.82-243.95,247.91Z"/>
    </g>
  </g>
</svg>