<?xml version="1.0" encoding="UTF-8"?>
<svg id="Layer_2" data-name="Layer 2" xmlns="http://www.w3.org/2000/svg" viewBox="0 0 6879.42 2282.8">
  <defs>
    <style>
      .cls-1 {
        fill: #e76a2c;
      }
    </style>
  </defs>
  <g id="Dimensions">
    <g>
      <path class="cls-1" d="M6.86,2183.03l-6.86-3.54c1.68-3.22,171.4-325.84,446.62-672.02,161.69-203.37,327.63-374.99,493.22-510.09,207.16-169.02,414.38-281.06,615.9-333.01,295.99-76.33,583.65-24.13,855.01,155.07,558.68,368.92,999.38,540.58,1386.91,540.24,211.13-.19,405.76-50.64,595.02-154.24,194.09-106.25,377.53-265.55,560.81-487.03,381.01-460.42,731.15-690.05,1040.71-682.53,111.56,2.71,217.99,36.66,316.33,100.91,81.05,52.95,156.96,126.58,225.61,218.85l-6.22,4.59c-68.11-91.55-143.35-164.56-223.64-217.01-97.12-63.45-202.19-96.97-312.28-99.65-307.06-7.49-655.12,221.23-1034.54,679.72-183.91,222.24-368.09,382.16-563.06,488.89-190.43,104.24-386.29,155.01-598.75,155.19-389.13.35-831.19-171.72-1391.19-541.52-269.46-177.93-555.03-229.73-848.79-154.04-200.41,51.66-406.61,163.18-612.88,331.46-165.15,134.73-330.7,305.94-492.03,508.85C177.98,1857.74,8.54,2179.81,6.86,2183.03Z"/>
      <path class="cls-1" d="M180.06,2158.72l-6.86-3.54c1.68-3.22,171.4-325.84,446.62-672.02,161.69-203.37,327.63-374.99,493.22-510.09,207.16-169.02,414.38-281.06,615.9-333.01,295.98-76.34,583.65-24.13,855.01,155.07,558.68,368.92,999.38,540.58,1386.91,540.24,211.13-.19,405.76-50.64,595.02-154.24,194.09-106.25,377.53-265.55,560.81-487.03C5507.72,233.67,5857.86,4.05,6167.41,11.56c111.56,2.71,217.99,36.66,316.33,100.91,81.05,52.95,156.96,126.59,225.61,218.86l-6.22,4.59c-68.11-91.55-143.35-164.56-223.65-217.01-97.12-63.45-202.19-96.97-312.28-99.65-307.03-7.45-655.11,221.23-1034.54,679.72-183.91,222.24-368.09,382.16-563.06,488.89-190.43,104.24-386.29,155.01-598.75,155.19-389.13.35-831.19-171.72-1391.19-541.52-269.46-177.93-555.03-229.74-848.79-154.04-200.41,51.66-406.61,163.18-612.88,331.46-165.15,134.73-330.7,305.94-492.03,508.85-274.8,345.62-444.23,667.69-445.91,670.9Z"/>
      <path class="cls-1" d="M258.08,2282.8l-6.84-3.59c1.87-3.52,190.53-356.13,489.81-732.87,175.81-221.32,354.85-407.57,532.14-553.58,221.8-182.66,441.51-302.52,653.03-356.25,289.82-73.68,568.37-24.1,827.81,147.21,558.68,368.92,999.38,540.58,1386.91,540.24,211.13-.19,405.76-50.64,595.02-154.24,194.09-106.25,377.53-265.55,560.81-487.03C5677.78,222.29,6027.92-7.34,6337.48.18c111.56,2.71,217.99,36.66,316.34,100.91,81.05,52.95,156.96,126.58,225.61,218.85l-6.22,4.59c-68.11-91.55-143.36-164.56-223.65-217.01-97.12-63.45-202.19-96.97-312.29-99.65-307.04-7.47-655.11,221.23-1034.53,679.72-183.91,222.24-368.09,382.16-563.06,488.89-190.43,104.24-386.29,155.01-598.75,155.19-389.13.35-831.19-171.72-1391.19-541.52-257.53-170.06-533.98-219.26-821.61-146.17-210.39,53.44-429.06,172.77-649.95,354.67-176.86,145.65-355.51,331.49-530.98,552.36-298.86,376.2-487.25,728.29-489.12,731.8Z"/>
    </g>
  </g>
</svg>