<?xml version="1.0" encoding="UTF-8"?>
<svg id="Layer_2" data-name="Layer 2" xmlns="http://www.w3.org/2000/svg" viewBox="0 0 254.94 254.94">
  <defs>
    <style>
      .cls-1 {
        fill: #e76a2c;
      }

      .cls-2 {
        fill: #192752;
      }
    </style>
  </defs>
  <g id="Layer_1-2" data-name="Layer 1">
    <g>
      <g>
        <path class="cls-2" d="M164.27,210.73l-.94-2.26c-.43-1.03-1.21-1.26-2.14-.88l-1.82.76,2.2,5.28,1.82-.76c.92-.38,1.31-1.1.88-2.14Z"/>
        <polygon class="cls-2" points="71.68 206.54 76.12 198.11 69.3 204.76 71.68 206.54"/>
        <path class="cls-2" d="M166.78,216.44c-.43-1.03-1.21-1.27-2.14-.88l-1.93.8,2.48,5.95,1.93-.8c.92-.38,1.31-1.1.88-2.14l-1.22-2.93Z"/>
        <path class="cls-2" d="M166.27,38.73l1.05-2.63c.58-1.45-.01-2.15-1.11-2.59l-1.77-.71-2.54,6.34,1.77.71c1.1.44,2.01.34,2.59-1.11Z"/>
        <polygon class="cls-2" points="139.96 224.06 142.89 223.65 140.1 214.54 139.96 224.06"/>
        <path class="cls-2" d="M117.21,34.09c1.17-.15,1.92-.69,1.72-2.24l-.39-3c-.2-1.55-1.06-1.87-2.24-1.72l-1.89.25.91,6.96,1.89-.25Z"/>
        <path class="cls-2" d="M127.47,0C57.07,0,0,57.07,0,127.47s57.07,127.47,127.47,127.47,127.47-57.07,127.47-127.47S197.87,0,127.47,0ZM127.47,245.1c-64.86,0-117.62-52.77-117.62-117.62S62.61,9.85,127.47,9.85s117.62,52.77,117.62,117.62-52.77,117.62-117.62,117.62Z"/>
        <path class="cls-2" d="M200.86,78.15l9.38-6.6c1.28-.9,1.17-1.81.48-2.78l-1.06-1.5-12.65,8.9,1.06,1.51c.68.97,1.5,1.38,2.78.48Z"/>
        <path class="cls-2" d="M127.47,13.31c-62.95,0-114.16,51.21-114.16,114.16s51.21,114.16,114.16,114.16,114.16-51.21,114.16-114.16S190.42,13.31,127.47,13.31ZM224.21,122.6c.4-.42.76-.91.93-1.55h1.2v13.28h-2.12v-11.72ZM215.3,123.7c0-2.01,1.19-2.81,3.19-2.81h.15c1.99,0,3.19.8,3.19,2.81v7.97c0,2.01-1.2,2.81-3.19,2.81h-.15c-1.99,0-3.19-.8-3.19-2.81v-7.97ZM210.19,62.48l3.21,4.56c1.9,2.7,2.09,5.24-.62,7.14l-10.3,7.25c-2.7,1.9-5.03.87-6.93-1.83l-3.21-4.56,17.85-12.56ZM189.43,42.59l7.5,5.95-1.98,2.49-4.66-3.7-3.72,4.69,3.91,3.1-1.98,2.49-3.91-3.1-3.91,4.93,4.74,3.76-1.97,2.49-7.57-6.01,13.56-17.09ZM162.28,28.49l5.24,2.1c3.07,1.23,4.61,3.26,3.38,6.32l-1.45,3.62c-.78,1.94-2.07,2.83-3.71,2.88l-.55,9.75-3.42-1.37.66-9.11-1.68-.67-3.23,8.07-3.36-1.35,8.12-20.26ZM139.88,23.71l3.59.44-2.66,21.66-3.59-.44,2.66-21.66ZM116.01,23.97c3.28-.43,5.61.59,6.04,3.86l.54,4.11c.43,3.28-1.56,4.86-4.84,5.29l-2.01.26,1.1,8.38-3.59.47-2.84-21.64,5.59-.73ZM86.77,31.93l.06-.03c2.73-1.23,5.4-1.06,6.73,1.9l1.46,3.24-3.24,1.46-1.25-2.79c-.56-1.25-1.48-1.39-2.44-.95-.97.43-1.47,1.21-.91,2.46l.61,1.37c.46,1.02,1.01,1.33,2.19,1.44l2.92.26c2.39.23,3.92.6,4.88,2.73l1.29,2.87c1.38,3.07-.04,5.01-3.06,6.36l-.06.03c-3.01,1.35-5.39,1.16-6.78-1.94l-1.56-3.47,3.24-1.46,1.35,3.01c.55,1.22,1.5,1.44,2.5,1,1-.45,1.46-1.31.92-2.53l-.7-1.56c-.46-1.02-1-1.39-2.24-1.49l-2.89-.27c-2.43-.24-3.95-.65-4.88-2.73l-1.17-2.62c-1.33-2.96.32-5.07,3.05-6.29ZM59.67,49.99l12.33,7.15-8.88-10.16,2.49-2.17,14.35,16.43-2.58,2.26-12.92-7.54,9.33,10.68-2.49,2.17-14.35-16.43,2.72-2.38ZM44.54,67.2l18.1,12.19-2.02,3-18.1-12.19,2.02-3ZM40.6,121.26h6.53v1.9h-2.18v11.16h-2.16v-11.16h-2.18v-1.9ZM31.5,129.47h2.13v1.98c0,.8.47,1.16,1.12,1.16s1.12-.36,1.12-1.16v-1.03c0-.67-.21-1.01-.86-1.36l-1.51-.86c-1.27-.73-2-1.32-2-2.69v-1.72c0-1.94,1.42-2.69,3.21-2.69h.04c1.79,0,3.21.75,3.21,2.69v2.13h-2.13v-1.83c0-.82-.47-1.12-1.1-1.12s-1.1.3-1.1,1.12v.9c0,.67.22.97.84,1.32l1.53.86c1.25.71,2,1.29,2,2.69v1.88c0,2.01-1.25,2.72-3.23,2.72h-.04c-1.98,0-3.23-.69-3.23-2.72v-2.28ZM22.7,121.26h5.73v1.9h-3.56v3.58h2.99v1.9h-2.99v3.77h3.62v1.9h-5.78v-13.06ZM22.67,138.04l24.75-.06v2.41l-24.75.02v-2.37ZM58.6,186.99l2.59-2.09c1.15-.93,1.05-1.78.35-2.65-.7-.87-1.51-1.15-2.67-.22l-9.05,7.28c-1.16.93-1.05,1.78-.35,2.65.7.87,1.51,1.15,2.67.22l2.99-2.41,2.2,2.73-3.42,2.75c-2.55,2.05-4.82,1.16-6.83-1.34l-.04-.05c-2.01-2.5-2.42-4.89.15-6.96l9.9-7.97c2.45-1.97,4.82-1.16,6.83,1.34l.04.05c2.01,2.5,2.3,4.98-.15,6.96l-3.02,2.43-2.2-2.73ZM70.94,215.51l-2.86-2.14,2.22-4.23-3.1-2.32-3.43,3.33-2.71-2.03,15.83-14.61,3.54,2.64-9.48,19.36ZM94.43,227.01l-3.09-1.25.87-14.5-5.16,12.76-2.97-1.2,7.94-19.64,3.25,1.32-.79,13.81,4.91-12.15,2.97,1.2-7.94,19.64ZM121.44,232.38l-3.31-.39-3-14.21-1.6,13.67-3.19-.37,2.46-21.04,3.49.41,2.9,13.53,1.52-13.01,3.19.37-2.46,21.04ZM54.94,127.95c0-40.41,32.76-73.17,73.17-73.17s73.17,32.76,73.17,73.17-32.76,73.17-73.17,73.17-73.17-32.76-73.17-73.17ZM145.16,231.03l-1.41-4.57-3.84.54-.09,4.78-3.36.48.92-21.53,4.38-.62,6.93,20.41-3.54.5ZM168.17,224.35l-5.06,2.1-8.14-19.56,5.11-2.13c2.96-1.23,5.27-.56,6.3,1.9l1.02,2.46c.58,1.4.58,3.13-.9,3.98,1.82-.43,2.96.64,3.58,2.15l1.34,3.21c1.02,2.46-.3,4.65-3.26,5.88ZM186.38,214.47l-12.23-17.29,2.87-2.03,12.23,17.29-2.87,2.03ZM204.79,198.76l-.04.04c-2.16,2.37-4.35,3.11-6.79.89l-2.73-2.49,2.32-2.55,2.37,2.16c.96.88,1.9.71,2.61-.08.71-.78.8-1.73-.16-2.61l-1.23-1.12c-.81-.73-1.43-.86-2.57-.46l-2.68.87c-2.26.73-3.77.94-5.4-.54l-2.06-1.88c-2.33-2.12-1.67-4.64.29-6.78l.04-.04c1.96-2.15,4.4-3.03,6.73-.91l2.55,2.32-2.33,2.55-2.19-2c-.98-.9-1.85-.67-2.54.1-.7.76-.85,1.65.14,2.54l1.07.98c.81.73,1.41.79,2.51.44l2.7-.89c2.22-.72,3.73-.99,5.4.54l2.26,2.06c2.41,2.2,1.9,4.47-.26,6.85ZM207.19,131.25c0-1.69,1.38-2.77,2.71-4.04,1.01-.97,1.46-1.37,1.46-2.07v-1.29c0-.91-.44-1.14-1.04-1.14s-1.01.23-1.01,1.14v1.93h-2.09v-2.16c0-1.97,1.1-2.73,3.11-2.73h.04c2.01,0,3.11.76,3.11,2.73v1.56c0,1.67-1.1,2.39-2.35,3.6-1.1,1.06-1.82,1.78-1.82,2.5v1.21h4.17v1.82h-6.3v-3.07ZM234.52,140.49h-27.2v-2.54h27.2v2.54ZM231.95,134.47h-.04c-2.01,0-3.07-.76-3.07-2.73v-1.25h2.12v1.02c0,.91.32,1.14.97,1.14s.97-.23.97-1.14v-2.73c-.3.32-.66.59-1.55.59-1.52,0-2.62-.76-2.62-2.73v-3.02c0-1.97,1.12-2.73,3.13-2.73h.04c2.01,0,3.13.76,3.13,2.73v8.12c0,1.97-1.06,2.73-3.07,2.73Z"/>
        <path class="cls-2" d="M231.88,122.71c-.64,0-1.02.23-1.02,1.14v2.54c0,.91.38,1.14,1.02,1.14.57,0,1.02-.27,1.02-1.14v-2.54c0-.91-.38-1.14-1.02-1.14Z"/>
        <path class="cls-2" d="M218.57,132.54c.7,0,1.14-.27,1.14-1.21v-7.28c0-.95-.44-1.21-1.14-1.21s-1.14.27-1.14,1.21v7.28c0,.95.44,1.21,1.14,1.21Z"/>
      </g>
      <path class="cls-2" d="M127.47,196.97c-37.97,0-68.85-30.89-68.85-68.85s30.89-68.85,68.85-68.85,68.85,30.89,68.85,68.85-30.89,68.85-68.85,68.85ZM127.47,63.42c-35.67,0-64.7,29.02-64.7,64.7s29.02,64.7,64.7,64.7,64.7-29.02,64.7-64.7-29.02-64.7-64.7-64.7Z"/>
      <path class="cls-1" d="M184.37,136.44c-1.86.2-8.8,1.65-8.8,1.65l.38-.87c-.36-.22-4.13,1.01-4.13,1.01l.44-1.15c-.55-.06-4.35,1.74-4.35,1.74l.44-1.37c-1.32.26-3.82,1.85-3.82,1.85l.51-1.39c-1.27.28-3.68,2.14-3.68,2.14l.21-1.21c-3.06,1.61-3.93,2.68-3.93,2.68l.17-1.33c-2.85,1.4-4.17,2.81-4.17,2.81l.27-1.39c-1.42.34-4.51,3.09-4.51,3.09v-1.09c-1.43.6-3.87,3.04-3.87,3.04l.09-.77c-1.52.37-4.02,2.87-4.02,2.87v-.91c-1.37.71-3.98,2.99-3.98,2.99l.09-1.11c-1.43.64-2.74,2.28-4.01,3.47-.95.89-3.9,2.52-5.33,3.29,1.26-1.38,4.16-4.47,5.55-5.3,1.81-1.08,4.16-2.06,5.35-3.51l-1.35-.27s3.51-2.29,4.77-3.65l-1.08-.31s3.73-2.08,4.64-3.73l-.94-.15s3.64-2.03,4.8-3.51l-1.3-.35s4.22-2.69,5.05-4.23l-1.74-.16s2.07-1.06,4.61-3.92l-1.63-.25s1.54-.65,4.38-3.69l-1.51-.16s2.94-2.18,3.67-3.58l-1.82.13s2.65-2.39,3.36-3.84l-1.76.05s3.3-3.84,3.39-4.5l-1.5.12s2.6-3.99,2.45-4.48l-1.15.15s3.87-7.59,4.66-9.71c.06-.15-.14-.29-.26-.18-1.7,1.48-7.54,7.69-7.54,7.69l-.26-1.13c-.52.03-3.36,3.84-3.36,3.84l-.4-1.45c-.59.31-3.06,4.73-3.06,4.73l-.56-1.67c-1.12,1.17-2.45,4.48-2.45,4.48l-.5-1.75c-1.06,1.16-2.1,4.68-2.1,4.68l-.67-1.36c-1.87,3.71-1.96,5.39-1.96,5.39l-.79-1.45c-1.81,3.36-2.1,5.68-2.1,5.68l-.74-1.58c-1.16,1.31-2.23,6.2-2.23,6.2l-.77-1.1c-.99,1.6-1.65,5.71-1.65,5.71l-.47-.83c-1.24,1.42-1.91,5.64-1.91,5.64l-.66-.91c-.84,1.64-1.78,5.73-1.78,5.73l-.72-1.17c-.95,1.62-1.06,4.17-1.46,6.24-.33,1.72-2.45,6.06-3.16,7.46.24-1.82.97-6.93,1.68-8.66.86-2.12,2.22-4.5,2.38-6.57l-1.26.61s1.57-4.3,1.82-6.32l-1.06.4s1.87-4.25,1.67-6.32l-.86.45s1.82-4.14,1.92-6.22l-1.26.51s1.92-5.1,1.72-7.03l-1.52.96s1.09-2.27,1.53-6.47l-1.48.81s.89-1.57,1.48-6.12l-1.33.81s1.16-3.84.96-5.56l-1.42,1.26s.81-3.84.56-5.61l-1.42,1.16s.51-5.56.2-6.22l-1.16,1.06s-.15-5.26-.56-5.61l-.86.86s-1.23-9.32-1.77-11.74c-.04-.17-.28-.17-.32,0-.56,2.41-1.74,11.74-1.74,11.74l-.86-.86c-.4.35-.56,5.61-.56,5.61l-1.16-1.06c-.3.66.2,6.22.2,6.22l-1.42-1.16c-.25,1.77.56,5.61.56,5.61l-1.42-1.26c-.2,1.72.96,5.56.96,5.56l-1.33-.81c.59,4.55,1.48,6.12,1.48,6.12l-1.48-.81c.44,4.2,1.53,6.47,1.53,6.47l-1.52-.96c-.2,1.92,1.72,7.03,1.72,7.03l-1.26-.51c.1,2.07,1.92,6.22,1.92,6.22l-.86-.45c-.2,2.07,1.67,6.32,1.67,6.32l-1.06-.4c.25,2.02,1.82,6.32,1.82,6.32l-1.26-.61c.15,2.07,1.52,4.45,2.38,6.57.68,1.67,1.3,6.49,1.53,8.46-.79-1.59-2.74-5.61-3.05-7.26-.4-2.07-.51-4.61-1.46-6.24l-.72,1.17s-.94-4.09-1.78-5.73l-.66.91s-.67-4.22-1.91-5.64l-.47.83s-.66-4.12-1.65-5.71l-.77,1.1s-1.07-4.89-2.23-6.2l-.74,1.58s-.29-2.31-2.1-5.68l-.79,1.45s-.08-1.67-1.96-5.39l-.67,1.36s-1.04-3.52-2.1-4.68l-.5,1.75s-1.33-3.31-2.45-4.48l-.56,1.67s-2.47-4.42-3.06-4.73l-.4,1.45s-2.85-3.81-3.36-3.84l-.26,1.13s-5.84-6.21-7.54-7.69c-.12-.1-.32.03-.26.18.79,2.11,4.66,9.71,4.66,9.71l-1.15-.15c-.15.49,2.45,4.48,2.45,4.48l-1.5-.12c.09.66,3.39,4.5,3.39,4.5l-1.76-.05c.71,1.46,3.36,3.84,3.36,3.84l-1.82-.13c.73,1.39,3.67,3.58,3.67,3.58l-1.51.16c2.84,3.04,4.38,3.69,4.38,3.69l-1.63.25c2.54,2.86,4.61,3.92,4.61,3.92l-1.74.16c.83,1.54,5.05,4.23,5.05,4.23l-1.3.35c1.16,1.48,4.8,3.51,4.8,3.51l-.94.15c.91,1.65,4.64,3.73,4.64,3.73l-1.08.31c1.26,1.36,4.77,3.65,4.77,3.65l-1.35.27c1.2,1.45,3.55,2.43,5.35,3.51,1.39.83,4.29,3.92,5.55,5.3-1.43-.77-4.38-2.4-5.33-3.29-1.27-1.19-2.58-2.83-4.01-3.47l.09,1.11s-2.62-2.28-3.98-2.99v.91s-2.5-2.5-4.03-2.87l.09.77s-2.44-2.43-3.88-3.04v1.09s-3.08-2.75-4.5-3.09l.27,1.39s-1.31-1.41-4.17-2.81l.17,1.33s-.87-1.07-3.93-2.68l.21,1.21s-2.41-1.86-3.68-2.14l.51,1.39s-2.5-1.59-3.82-1.85l.44,1.37s-3.8-1.8-4.35-1.74l.44,1.15s-3.77-1.22-4.13-1.01l.38.87s-6.94-1.45-8.8-1.65c-.13-.01-.2.17-.09.24,1.56,1.04,7.85,4.31,7.85,4.31l-.84.43c.14.4,3.82,1.85,3.82,1.85l-1.07.61c.38.4,4.46,1.43,4.46,1.43l-1.21.78c1.18.64,4.13,1.01,4.13,1.01l-1.28.75c1.16.59,4.2.69,4.2.69l-.93.8c3.38.71,4.74.44,4.74.44l-.98.92c3.09.74,5,.49,5,.49l-1.09.9c1.31.64,5.45.49,5.45.49l-.7.83c1.5.45,4.93.13,4.93.13l-.56.53c1.41.68,4.93.35,4.93.35l-.58.7c1.5.32,4.97.23,4.97.23l-.77.8c1.51.41,3.57-.02,5.3-.12,1.34-.08,4.8.64,6.32.97-1.05.12-2.69.28-3.37.2-1.04-.13-2.25-.46-3.18-.29l.42.49s-2.08-.19-3-.07l.31.43s-2.09-.34-2.98,0l.3.33s-2.04-.32-2.97-.12l.37.51s-2.48-.26-3.3.06l.61.57s-1.13-.22-3.03.08l.53.57s-.8-.21-2.87.06l.52.5s-1.83-.07-2.56.23l.73.48s-1.79.09-2.54.42l.68.5s-2.51.43-2.76.65l.61.4s-2.3.69-2.4.91l.48.28s-3.96,1.65-4.96,2.19c-.07.04-.04.15.04.14,1.13-.03,5.38-.61,5.38-.61l-.27.49c.2.14,2.54-.42,2.54-.42l-.33.65c.33.06,2.71-.83,2.71-.83l-.34.77c.81-.1,2.4-.91,2.4-.91l-.39.78c.78-.11,2.33-1.09,2.33-1.09l-.2.69c1.93-.8,2.51-1.39,2.51-1.39l-.18.76c1.79-.69,2.66-1.45,2.66-1.45l-.24.79c.87-.14,2.89-1.6,2.89-1.6l-.07.63c.9-.29,2.51-1.6,2.51-1.6l-.1.44c.94-.15,2.58-1.5,2.58-1.5l-.05.52c.86-.35,2.56-1.56,2.56-1.56l-.11.64c.89-.31,1.78-1.21,2.61-1.84.67-.52,2.81-1.4,3.61-1.72,0,0,0,0,0,0,0,0,0,.01,0,.01h.34s0-.03,0-.05c.01,0,.02,0,.03.01v.03s.04,0,.06-.01c.79.32,2.93,1.2,3.61,1.72.83.64,1.71,1.53,2.61,1.84l-.11-.64s1.7,1.21,2.56,1.56l-.05-.52s1.64,1.34,2.58,1.5l-.1-.44s1.61,1.31,2.51,1.6l-.07-.63s2.02,1.47,2.89,1.6l-.24-.79s.87.76,2.66,1.45l-.18-.76s.58.58,2.51,1.39l-.2-.69s1.55.98,2.33,1.09l-.39-.78s1.59.82,2.4.91l-.34-.77s2.39.89,2.71.83l-.33-.65s2.33.55,2.54.42l-.27-.49s4.25.58,5.38.61c.08,0,.11-.11.04-.14-1-.53-4.96-2.19-4.96-2.19l.48-.28c-.11-.22-2.4-.91-2.4-.91l.61-.4c-.25-.21-2.76-.65-2.76-.65l.68-.5c-.75-.32-2.54-.42-2.54-.42l.73-.48c-.73-.29-2.56-.23-2.56-.23l.52-.5c-2.07-.27-2.87-.06-2.87-.06l.53-.57c-1.9-.3-3.03-.08-3.03-.08l.61-.57c-.82-.32-3.3-.06-3.3-.06l.37-.51c-.92-.2-2.97.12-2.97.12l.3-.33c-.89-.34-2.98,0-2.98,0l.31-.43c-.92-.13-3,.07-3,.07l.42-.49c-.93-.18-2.14.15-3.18.29-.68.09-2.32-.07-3.37-.2,1.51-.33,4.97-1.06,6.32-.97,1.74.11,3.79.54,5.3.12l-.77-.8s3.47.09,4.97-.23l-.58-.7s3.52.33,4.93-.35l-.56-.53s3.43.32,4.93-.13l-.7-.83s4.14.15,5.45-.49l-1.09-.9s1.91.25,5-.49l-.98-.92s1.35.27,4.74-.44l-.93-.8s3.04-.1,4.2-.69l-1.28-.75s2.94-.37,4.13-1.01l-1.21-.78s4.08-1.03,4.46-1.43l-1.07-.61s3.68-1.45,3.82-1.85l-.84-.43s6.29-3.27,7.85-4.31c.11-.07.04-.26-.09-.24Z"/>
    </g>
  </g>
</svg>